<?xml version="1.0" encoding="utf-8"?>
<!-- Generator: Adobe Illustrator 20.1.0, SVG Export Plug-In . SVG Version: 6.00 Build 0)  -->
<svg version="1.1" id="Calque_1" xmlns="http://www.w3.org/2000/svg" xmlns:xlink="http://www.w3.org/1999/xlink" x="0px" y="0px"
	 width="302.3px" height="82.7px" viewBox="0 0 302.3 82.7" style="enable-background:new 0 0 302.3 82.7;" xml:space="preserve">
<style type="text/css">
	.st0{fill:#F6B221;}
</style>
<polygon class="st0" points="59.2,74.7 62.5,75 64.1,77.9 65.5,74.9 68.8,74.2 66.3,72 66.7,68.7 63.8,70.4 60.7,68.9 61.5,72.2 "/>
<polygon class="st0" points="70.1,58.3 68.9,60.2 71.1,59.9 72.5,61.6 72.9,59.4 74.9,58.6 73,57.5 72.8,55.4 71.3,56.9 69.2,56.4 
	"/>
<polygon class="st0" points="60.5,62.8 58.7,64.9 61.4,65.1 62.8,67.5 63.9,64.9 66.6,64.4 64.5,62.6 64.8,59.8 62.4,61.3 
	59.9,60.2 "/>
<polygon class="st0" points="60,82.3 62.3,82 61.8,81.6 63.7,80.6 61.7,79.7 61.3,77.5 59.9,79.2 57.7,78.9 58.8,80.7 57.8,82.7 "/>
<polygon class="st0" points="91.6,65.8 92.2,70 95.2,67 99.5,67.8 97.5,64 99.6,60.2 95.3,60.8 92.4,57.7 91.7,62 87.8,63.8 "/>
<polygon class="st0" points="81.4,62.6 83.8,62 85.6,63.7 85.8,61.2 87.9,60 85.6,59.1 85.1,56.7 83.5,58.6 81.1,58.3 82.4,60.4 "/>
<polygon class="st0" points="75.9,66.2 71.9,65.9 74.2,69.2 72.7,72.9 76.5,71.8 79.6,74.3 79.7,70.4 83.1,68.2 79.3,66.9 78.3,63 
	"/>
<polygon class="st0" points="72.3,80.6 74.2,82.2 74.3,79.7 76.5,78.4 74.1,77.5 73.6,75.1 72,77.1 69.5,76.9 70.9,78.9 69.9,81.2 
	"/>
<polygon class="st0" points="55.6,72.1 55.8,69.9 54,71.1 52,70.4 52.6,72.4 51.3,74.1 53.4,74.1 54.6,75.9 55.3,73.9 57.3,73.4 "/>
<g>
	<path class="st0" d="M96.3,32.9c-0.3-7-5.5-9.9-10.4-9.9c-9.7,0-14.5,8.8-14.1,16.3c0.3,7,5.5,9.9,10.4,9.9
		C91.6,49.3,96.7,40.9,96.3,32.9z M82.7,43.8c-2.1,0-4.2-1.6-4.1-5.8c0.1-4.3,2.5-9.5,6.7-9.5c2.1,0,4.2,1.6,4.1,5.8
		C89.4,38.6,86.9,43.8,82.7,43.8z"/>
	<polygon class="st0" points="120.7,23.9 113.4,35.5 111.1,23.8 100.8,23.9 101.9,26.1 96.2,48.5 102.1,48.5 106.2,32 108.5,42.9 
		114.3,42.9 122,31.6 117.6,48.5 124.3,48.5 129.6,23.9 	"/>
	<polygon class="st0" points="129.5,48.5 136.2,48.5 141.5,23.9 134.8,23.9 	"/>
	<path class="st0" d="M40.5,23.9L37,40.6c-1.4,2-3.1,3.1-5.3,3.1c-2.6,0-4.1-1.2-3.2-5.9c0.8-4,3-14,3-14h-6.7l-3.2,14.9
		c-1.4,7.2,1.7,10.4,7.2,10.4c2.8,0,5.4-1.3,6.8-2.2l-0.3,1.5h6.7l5.3-24.6H40.5z"/>
	<path class="st0" d="M3.5,26.1L3.5,26.1c-0.9,4.2-2.7,12.7-3,14.1c-0.4,1.9-2.2,8.2,4.9,8.2H17l1.2-5.3H8.4c-1.8,0-1.5-1.5-1.3-2.7
		c0.1-0.4,0.2-1.1,0.5-2.4H17l1.2-5.1H8.7c0.3-1.3,0.6-2.7,0.8-4H20l1.2-5.3H2.3L3.5,26.1z"/>
	<path class="st0" d="M70.7,30.9c0.2-6.4-5.9-7.1-10.4-7.1h-9.9l1.2,2.3v0l-4.8,22.3h6.7l2-9.5c0.8,0,2.2,0,2.2,0l2.3,6.2
		c0,0,1.1,3.8,5,3.7c0,0,1.1,0.1,3.7-0.4l0.4-3.4c-1.9-0.2-2.5-2.1-2.5-2.1L64.5,38C67.7,37,70.6,34.8,70.7,30.9z M63.6,31.8
		c-0.4,1.8-1.6,3-4.6,3h-2.7l1.3-6.2H60C63.1,28.7,64,29.9,63.6,31.8z"/>
	<path class="st0" d="M205.8,23.1c-9.7,0-14.5,8.8-14.1,16.3c0.3,7,5.5,9.9,10.4,9.9c9.4,0,14.5-8.3,14.1-16.3
		C215.8,25.9,210.6,23.1,205.8,23.1z M202.6,43.8c-2.1,0-4.2-1.6-4.1-5.8c0.1-4.3,2.5-9.5,6.7-9.5c2.1,0,4.2,1.6,4.1,5.8
		C209.2,38.6,206.8,43.8,202.6,43.8z"/>
	<polygon class="st0" points="238.5,23.9 235.4,38.3 228.4,23.9 220.5,23.9 221.7,26.1 216.9,48.5 223.1,48.5 226.1,34.6 
		233.3,48.5 239.4,48.5 244.7,23.9 	"/>
	<path class="st0" d="M149.4,40.6c0.4-2,3.6-16.7,3.6-16.7h-6.7c0,0-3.1,14.5-3.5,16.4c-0.4,1.9-2.2,8.2,4.9,8.2h10.1l1.2-5.3h-8.3
		C148.8,43.2,149.2,41.7,149.4,40.6z"/>
	<path class="st0" d="M261.7,41.2c0-5.9-7.6-8-7.6-11.3c0-1.1,0.8-1.9,2.5-1.9c2.2,0,5.5,1.4,5.5,1.4l1.8-5.1
		c-2.1-0.7-4.7-1.2-7.6-1.2c-6.2,0-8.5,3.4-8.9,7.1c-0.7,6.8,7.4,8.6,7.1,11.5c-0.1,1.4-1.6,2.2-3.8,2.2c-2.4,0-4.9-1.3-4.9-1.3
		l-1.6,5.2c0,0,2.8,1.3,7.2,1.3C257.2,49.2,261.7,46.2,261.7,41.2z"/>
	<polygon class="st0" points="178.7,48.5 185.4,48.5 190.7,23.9 184,23.9 	"/>
	<path class="st0" d="M167.7,40.6c0.4-2,3.6-16.7,3.6-16.7h-6.7c0,0-3.1,14.5-3.5,16.4c-0.4,1.9-2.2,8.2,4.9,8.2h10.1l1.2-5.3H169
		C167.2,43.2,167.5,41.7,167.7,40.6z"/>
	<path class="st0" d="M301.5,24.9h-22.3c-0.9,0-2.4,0-2.6-0.1c-0.2-0.1-0.3-0.1-1.2-2.6l-7-21.5c-0.2-0.5-0.3-0.6-0.4-0.6
		c0,0-0.2,0.2-0.4,0.6l-7,21.2c1.3,0.3,2.6,0.7,3.6,1l2.3-6.9c0,0,0.7-2.2,1-2.6l0.1-0.1h0.7l0.1,0.1c0.2,0.3,1,2.5,1,2.6l3.7,11.4
		c0.3,1,0.6,1.2,1.7,1.2h11.7c0,0,2.4,0,2.7,0.1l0.2,0.1l0.2,0.7l-0.1,0.2c-0.2,0.3-2.1,1.7-2.1,1.7l-9.4,6.8
		c-1,0.7-1.2,0.9-0.8,1.8l3.7,11.4c0,0,0.7,2.2,0.7,2.6l0,0.2l-0.6,0.4l-0.2-0.1c-0.4-0.1-2.3-1.5-2.3-1.5l-9.7-6.9
		c-0.4-0.3-0.7-0.4-0.9-0.4c-0.3,0-0.6,0.2-1.1,0.5l-9.6,7c-1,0.7-2.4,2.1-3.1,3.1l-5.8,7.9l17.2-12.5c2-1.5,2.1-1.5,2.2-1.5
		c0,0,0.1,0,0.1,0c0,0,0.1,0,0.1,0c0.1,0,0.2,0,2.2,1.5l18.1,13c0.4,0.3,0.6,0.3,0.6,0.3c0,0,0,0,0,0s0.1-0.2-0.1-0.7l-6.8-21.2
		c-0.3-0.8-0.7-2.3-0.7-2.5c0-0.2,0-0.4,2.1-1.9l18.1-13.2c0.4-0.3,0.5-0.5,0.5-0.5C302.2,25,302.1,24.9,301.5,24.9z"/>
</g>
<path class="st0" d="M202.9,64c-2.4,0-3.7,2.9-3.8,5.3c0,2.3,1.1,3.2,2.3,3.2c2.4,0,3.7-2.9,3.8-5.3C205.2,64.9,204,64,202.9,64z"/>
<path class="st0" d="M92.4,59.6 M93.9,63.4c-0.6,0.6-1.2,1.2-1.7,1.7L89,68c-0.8,0.7-1.7,1.4-2.6,2.1L83.8,72
	c-1.3,0.9-2.6,1.7-3.9,2.4l-5.1,2.5c-6.3,2.7-13.7,4.5-23.2,5.8l163.4,0c9.2,0,16.7-5,22.8-12.9c5.3-6.8,11-15.8,11-15.8l-146.5,0
	c-1.2,1.5-2.5,3-3.7,4.3L93.9,63.4z M120.6,75.2h-3.8l2.5-9.6l-4.4,6.4h-3.3l-1.3-6.2l-2.3,9.3h-3.3l3.2-12.7l-0.7-1.3l5.9,0
	l1.3,6.6l4.1-6.6h5L120.6,75.2z M132.1,70l-1.2,5.2h-4.1l1.2-5.4c-1-1.6-2.4-4.8-2.6-8.6h4.1c0.2,2.7,0.9,4.7,1.5,6
	c1.1-1.1,2.8-3.9,3.8-6c1.3,0,2.6,0,3.9,0C137,64.6,134.8,67.6,132.1,70z M153.7,75.2l2.5-9.5l-4.3,6.4h-3.3l-1.3-6.1l-2.3,9.3h-3.3
	l3.2-12.5l-0.7-1.3l5.8,0l1.3,6.5l4.1-6.5h5l-3,13.8H153.7z M164.1,75.2h-3.7l3-13.8h3.7L164.1,75.2z M176.2,75.2h-5.7
	c-4,0-3-3.5-2.8-4.6c0.2-1.1,2-9.2,2-9.2h3.7c0,0-1.8,8.2-2,9.4c-0.1,0.7-0.3,1.5,0.7,1.5h4.7L176.2,75.2z M186.5,75.2h-5.7
	c-4,0-3-3.5-2.8-4.6c0.2-1.1,2-9.2,2-9.2h3.7c0,0-1.8,8.2-2,9.4c-0.1,0.7-0.3,1.5,0.7,1.5h4.7L186.5,75.2z M191.7,75.2H188l3-13.8
	h3.7L191.7,75.2z M201.1,75.6c-2.7,0-5.6-1.6-5.8-5.5c-0.2-4.2,2.4-9.2,7.9-9.2c2.7,0,5.6,1.6,5.8,5.5
	C209.2,70.9,206.4,75.6,201.1,75.6z M222.1,75.2h-3.5l-4-7.8l-1.7,7.8h-3.5l2.7-12.5l-0.7-1.3h4.4l4,8.1l1.7-8.1h3.5L222.1,75.2z"/>
</svg>
